<svg width="50" height="50" fill="none" xmlns="http://www.w3.org/2000/svg"><g clip-path="url(#a)"><path d="M50.175 26.66v-.002l-.696-.751.06-.165-11.219-4.129V8.202a.967.967 0 0 0-.636-.956L25.83 2.885a.946.946 0 0 0-.662 0L13.315 7.247a.972.972 0 0 0-.57.567h-.065V21.613l-11.22 4.13a.972.972 0 0 0-.57.566H.826v14.529c0 .401.247.773.635.915l11.854 4.362c.214.08.448.08.662 0l11.524-4.24 11.524 4.24c.213.08.448.08.662 0l11.854-4.362a.968.968 0 0 0 .554-.527h.081V26.66ZM12.68 31.703v12.104l-9.924-3.652V28.051l9.924 3.652Zm.903-8.347 9.036 3.325-8.974 3.302-9.035-3.325 8.973-3.302Zm10.952 4.695v12.104l-9.925 3.652V31.703l9.925-3.652Zm0-14.843v12.058l-9.925-3.653V9.555l9.925 3.652Zm-8.07-5.045L25.5 4.838l9.035 3.325-9.035 3.324-9.035-3.324Zm10 5.044 9.924-3.652v12.058l-9.924 3.653V13.208Zm9.924 18.496v12.104l-9.924-3.652V28.051l9.924 3.652Zm10.001-5.045-9.035 3.325-8.974-3.302 9.036-3.325 8.973 3.302Zm1.854 1.393v12.104l-9.924 3.652V31.703l9.924-3.652Z" fill="#FC85B4" stroke="#FC85B4" stroke-width=".35"/></g><defs><clipPath id="a"><path fill="#fff" d="M0 0h50v50H0z"/></clipPath></defs></svg>