<svg width="48" height="48" fill="none" xmlns="http://www.w3.org/2000/svg"><g clip-path="url(#a)"><path d="M47.748 40.447V13.808a4.083 4.083 0 0 0-4.247-4.192H33.701v-2.07a4.257 4.257 0 0 0-4.145-4.366l18.192 37.267Zm0 0v.007-.007ZM18.556 3.178a4.257 4.257 0 0 0-4.258 4.256l4.258-4.256Zm0 0h10.887c.038 0 .075 0 .113.002l-11-.002ZM14.3 7.552v2.065H4.498a4.082 4.082 0 0 0-4.246 3.91L14.3 7.552Zm0 0v-.007m0 .007v-.007m0 0a4.076 4.076 0 0 1-.002-.111l.001.111ZM.251 13.815v26.639a4.257 4.257 0 0 0 4.144 4.366l-.006.25L.252 13.815Zm0 0v-.007m0 .007v-.007m0 0a4.084 4.084 0 0 1 .001-.28l-.001.28Zm18.17-8.785.135-.003m-.134.003 11.02.247v-.25H18.557m-.134.003A2.416 2.416 0 0 0 16.14 7.56l2.282-2.536Zm.134-.003v.25-.25Zm25.068 37.957a2.38 2.38 0 0 1-.134.003m.134-.003-.134-.247m.134.247a2.416 2.416 0 0 0 2.282-2.536v-8.123l-.387.253c-.597.39-1.303.58-2.016.544H31.359v3.625a1.272 1.272 0 0 1-1.163 1.058H17.804a1.272 1.272 0 0 1-1.163-1.058v-3.625H4.496a3.38 3.38 0 0 1-2.016-.544l-.387-.253v8.123a2.39 2.39 0 0 0-.003.127m41.535 2.409L4.509 42.73m38.982.25v-.25m0 .25v-.25m0 .25H4.509m38.982-.25H4.51m0 .25v-.25m0 .25v-.25m0 .25a2.416 2.416 0 0 1-2.42-2.412m0 0h.25-.25Zm41.536-9.298a2.38 2.38 0 0 1-.134.004m.134-.004-.134-.246m.134.246a2.416 2.416 0 0 0 2.282-2.536m-2.282 2.536 2.282-2.536m-2.416 2.54v-.25m0 .25v-.25m0 .25H31.359v-2.767c0-.209-.12-.388-.343-.527a1.597 1.597 0 0 0-.812-.218H17.796c-.282 0-.586.078-.812.218-.224.14-.343.318-.343.527v2.767H4.509m38.982-.25H31.61v-2.517c0-.644-.76-.995-1.405-.995H17.796c-.644 0-1.405.351-1.405.995v2.517H4.509m0 .25v-.25m0 .25v-.25m0 .25a2.416 2.416 0 0 1-2.42-2.412m2.42 2.162a2.166 2.166 0 0 1-2.17-2.163m0 0h-.25m.25 0c0-.04.002-.08.004-.12m-.003.12.003-.12m-.003.12-.25.001m.25 0h-.25m.253-.12V13.814v14.926Zm-.25-14.92a2.24 2.24 0 0 1 2.095-2.367c.11-.007.221-.006.332.003h38.96a2.24 2.24 0 0 1 2.422 2.03m-43.809.335 43.564-.008m-43.564.008v14.912-14.912Zm43.809-.335-.25.023.25-.023Zm0 0c.01.111.012.223.005.335m0 0v-.008h-.25m.25.008v14.911m0-14.911v.008l-.25-.016m0 0 .25 14.92m-27.425 6.971v.25h11.036v-6.353H18.482v6.103Z" fill="#fff" stroke="#fff" stroke-width=".5"/></g><defs><clipPath id="a"><path fill="#fff" d="M0 0h48v48H0z"/></clipPath></defs></svg>