<svg width="163" height="346" fill="none" xmlns="http://www.w3.org/2000/svg"><path fill-rule="evenodd" clip-rule="evenodd" d="M232.845 95.228c9.781 10.506 24.138 14.55 34.03 24.952 12.202 12.83 29.946 24.775 30.078 42.458.132 17.634-19.505 28.075-29.441 42.636-9.977 14.622-16.174 31.026-29.089 43.136-17.93 16.813-36.509 47.887-59.947 40.352-24.935-8.015-18.745-47.39-32.059-69.929-8.351-14.137-23.332-22.463-31.07-36.943-9.548-17.869-21.345-36.386-18.846-56.471 2.648-21.291 17.502-38.72 32.586-53.976 16.426-16.615 34.862-42.548 57.672-37.32 25.388 5.82 28.34 42.043 46.086 61.105Z" fill="#FFECF2"/><path clip-rule="evenodd" d="M217.742 93.921c11.317 12.156 27.93 16.836 39.376 28.872 14.119 14.846 34.65 28.668 34.804 49.129.152 20.404-22.569 32.486-34.067 49.334-11.545 16.918-18.715 35.9-33.659 49.913-20.747 19.454-42.244 55.41-69.365 46.691-28.851-9.275-21.69-54.835-37.095-80.915-9.662-16.358-26.998-25.992-35.95-42.747-11.05-20.677-24.699-42.102-21.808-65.342C63.043 104.22 80.23 84.054 97.683 66.4c19.007-19.226 40.339-49.232 66.733-43.182 29.376 6.734 32.793 48.647 53.326 70.703Z" stroke="#FFD0E0" stroke-width="2"/></svg>