<svg width="123" height="36" fill="none" xmlns="http://www.w3.org/2000/svg"><path d="M.42 28V.424h.036l13.428 19.044L27.636.424h.072V28h-5.22V15.364l-8.64 12.276h-.072L5.46 16.156V28H.42Zm34.029-15.732h5.04V28h-5.04V12.268Zm-.108-5.58c0-.744.288-1.356.864-1.836.6-.48 1.236-.72 1.908-.72.672 0 1.284.24 1.836.72.576.48.864 1.092.864 1.836s-.288 1.356-.864 1.836c-.552.456-1.164.684-1.836.684-.672 0-1.308-.228-1.908-.684-.576-.48-.864-1.092-.864-1.836Z" fill="#F78CB6"/><path d="m49.935 12.268.396 3.6a7.085 7.085 0 0 1 1.872-2.34c.792-.672 1.572-1.176 2.34-1.512.768-.36 1.356-.54 1.764-.54l-.252 5.04c-1.176-.144-2.184.048-3.024.576a5.415 5.415 0 0 0-1.944 2.088c-.456.864-.684 1.752-.684 2.664V28H45.4V12.268h4.536Zm17.046 16.164c-1.463 0-2.795-.288-3.995-.864-1.176-.6-2.112-1.512-2.808-2.736-.697-1.224-1.044-2.784-1.044-4.68 0-1.776.36-3.312 1.08-4.608.72-1.296 1.668-2.292 2.843-2.988 1.177-.72 2.424-1.08 3.745-1.08 1.56 0 2.735.252 3.527.756.817.504 1.465 1.056 1.945 1.656l.323-1.62h4.68V28h-5.04v-1.944c-.24.24-.6.552-1.08.936-.456.384-1.031.72-1.727 1.008-.697.288-1.513.432-2.449.432Zm1.44-4.104c1.752 0 3.024-.792 3.816-2.376V18.1c-.287-.768-.791-1.38-1.511-1.836-.697-.456-1.525-.684-2.484-.684-1.08 0-2.017.408-2.809 1.224-.792.792-1.188 1.824-1.188 3.096 0 .84.192 1.596.576 2.268a4.36 4.36 0 0 0 1.513 1.584 4.026 4.026 0 0 0 2.087.576ZM91.327 35.92c-1.416 0-2.616-.168-3.6-.504-.96-.336-1.776-.744-2.448-1.224a34.761 34.761 0 0 1-1.8-1.368l2.952-3.456c.552.504 1.188.984 1.908 1.44.744.48 1.716.72 2.916.72s2.244-.312 3.132-.936c.912-.6 1.368-1.488 1.368-2.664v-2.232c-.456.744-1.164 1.392-2.124 1.944-.96.528-2.208.792-3.744.792a7.676 7.676 0 0 1-3.96-1.08 8.386 8.386 0 0 1-2.88-2.988c-.72-1.272-1.08-2.712-1.08-4.32 0-1.656.384-3.12 1.152-4.392.768-1.296 1.764-2.316 2.988-3.06 1.224-.744 2.52-1.116 3.888-1.116 1.368 0 2.544.204 3.528.612 1.008.384 1.752.852 2.232 1.404l.396-1.224h4.644V28c0 1.536-.432 2.892-1.296 4.068-.864 1.2-2.016 2.136-3.456 2.808-1.416.696-2.988 1.044-4.716 1.044ZM87.043 19.9c0 1.248.42 2.304 1.26 3.168.84.84 1.872 1.26 3.096 1.26 2.016 0 3.468-.792 4.356-2.376V18.1c-.336-.768-.888-1.38-1.656-1.836-.768-.456-1.668-.684-2.7-.684-1.224 0-2.256.408-3.096 1.224-.84.792-1.26 1.824-1.26 3.096Zm27.389 8.532c-1.92 0-3.552-.36-4.896-1.08-1.32-.72-2.328-1.716-3.024-2.988-.696-1.272-1.044-2.736-1.044-4.392 0-1.584.408-3.012 1.224-4.284.816-1.272 1.908-2.28 3.276-3.024 1.368-.768 2.892-1.152 4.572-1.152 2.256 0 4.104.66 5.544 1.98 1.464 1.296 2.412 3.18 2.844 5.652l-11.52 3.672c.768.888 1.812 1.332 3.132 1.332.552 0 1.08-.096 1.584-.288a8.379 8.379 0 0 0 1.548-.756l2.232 3.744c-.84.48-1.752.864-2.736 1.152-.96.288-1.872.432-2.736.432Zm-3.996-8.748v.324l6.912-2.34a3.774 3.774 0 0 0-1.044-1.548c-.48-.456-1.2-.684-2.16-.684-1.128 0-2.028.384-2.7 1.152-.672.768-1.008 1.8-1.008 3.096Z" fill="#56597A"/></svg>