<svg width="22" height="22" fill="none" xmlns="http://www.w3.org/2000/svg"><path d="M16.045 0H5.955A5.962 5.962 0 0 0 0 5.955v10.09A5.962 5.962 0 0 0 5.955 22h10.09A5.962 5.962 0 0 0 22 16.045V5.955A5.962 5.962 0 0 0 16.045 0Zm4.665 16.045a4.67 4.67 0 0 1-4.665 4.665H5.955a4.67 4.67 0 0 1-4.665-4.665V5.955A4.67 4.67 0 0 1 5.955 1.29h10.09a4.67 4.67 0 0 1 4.665 4.665v10.09Z" fill="#A7A7A7"/><path d="M11 4.984A6.022 6.022 0 0 0 4.985 11 6.022 6.022 0 0 0 11 17.015 6.022 6.022 0 0 0 17.015 11 6.022 6.022 0 0 0 11 4.984Zm0 10.742A4.731 4.731 0 0 1 6.274 11 4.731 4.731 0 0 1 11 6.274 4.731 4.731 0 0 1 15.726 11 4.731 4.731 0 0 1 11 15.726ZM17.16 2.848a1.78 1.78 0 0 0-1.778 1.778c0 .98.797 1.777 1.777 1.777a1.78 1.78 0 0 0 1.778-1.777 1.78 1.78 0 0 0-1.778-1.778Zm0 2.265a.488.488 0 1 1 0-.976.488.488 0 0 1 0 .976Z" fill="#A7A7A7"/></svg>